<?xml version="1.0" standalone="no"?>
<!DOCTYPE svg PUBLIC "-//W3C//DTD SVG 20010904//EN"
 "http://www.w3.org/TR/2001/REC-SVG-20010904/DTD/svg10.dtd">
<svg version="1.0" xmlns="http://www.w3.org/2000/svg"
 width="512.000000pt" height="512.000000pt" viewBox="0 0 512.000000 512.000000"
 preserveAspectRatio="xMidYMid meet">
<metadata>
Created by potrace 1.11, written by Peter Selinger 2001-2013
</metadata>
<g transform="translate(0.000000,512.000000) scale(0.100000,-0.100000)"
fill="#000000" stroke="none">
<path d="M637 4374 c-1 -1 -32 -4 -68 -7 -142 -12 -266 -73 -380 -186 -88 -88
-150 -200 -174 -316 -21 -102 -21 -2516 1 -2614 49 -230 233 -421 462 -483 76
-20 93 -20 2057 -20 1089 -1 2000 2 2025 5 243 29 450 202 532 444 l23 68 3
1263 c2 1088 0 1272 -13 1335 -17 84 -78 213 -132 278 -96 115 -253 204 -399
225 -38 5 -3930 13 -3937 8z m3938 -454 c56 -28 100 -84 112 -146 14 -67 8
-2424 -6 -2459 -21 -53 -62 -97 -111 -119 l-48 -22 -1969 0 c-1879 1 -1970 2
-2001 19 -55 30 -90 67 -108 115 -16 41 -18 137 -18 1226 -1 649 2 1203 6
1231 10 66 51 123 113 155 l50 26 1965 0 1965 -1 50 -25z"/>
<path d="M1196 3299 c-83 -31 -127 -99 -127 -195 0 -123 77 -211 194 -219 62
-4 116 20 165 74 149 166 -23 420 -232 340z"/>
<path d="M2057 3301 c-57 -21 -81 -39 -106 -83 -28 -47 -36 -115 -21 -180 16
-66 78 -130 142 -146 88 -23 198 31 243 118 16 32 23 112 13 150 -30 113 -161
181 -271 141z"/>
<path d="M2929 3305 c-61 -15 -105 -48 -130 -97 -55 -108 -13 -249 89 -302 81
-42 164 -27 233 43 73 72 88 159 44 248 -45 89 -141 133 -236 108z"/>
<path d="M3782 3305 c-167 -50 -211 -252 -81 -372 111 -102 305 -34 345 121
39 152 -112 295 -264 251z"/>
<path d="M1226 2242 c-32 -4 -91 -39 -118 -69 -91 -101 -50 -276 77 -334 59
-26 90 -29 143 -14 83 25 148 107 155 196 5 59 -10 101 -49 148 -52 60 -122
85 -208 73z"/>
<path d="M3752 2229 c-78 -30 -117 -91 -121 -191 -3 -63 22 -129 61 -164 44
-41 131 -73 143 -54 4 6 10 8 14 5 16 -9 98 26 128 56 83 80 90 202 17 287
-63 74 -150 95 -242 61z"/>
<path d="M2076 2233 c-34 -9 -93 -51 -114 -80 -83 -119 -28 -287 108 -327 35
-10 149 -13 505 -12 499 2 497 2 557 58 84 80 86 223 4 303 -66 63 -37 60
-561 62 -264 0 -489 -1 -499 -4z"/>
</g>
</svg>
